<svg id="Logo_Artwork" xmlns="http://www.w3.org/2000/svg" viewBox="0 0 87.5 100"><defs><style>.cls-1{fill:#41008c;}</style></defs><path class="cls-1" d="M17.89,32.17a82.45,82.45,0,0,0,2.77,9L43.75,28.91V18.41Z"/><path class="cls-1" d="M85.84,22.48,45.44.43A3.43,3.43,0,0,0,43.72,0a3.48,3.48,0,0,0-1.66.43L1.66,22.48c-1.79.95-1.79,3.95-1.55,4.95C5.21,52.89,27,87.78,43.75,100V87.4c-12.74-11-29-39-33.71-58.74L43.75,10.25,77.46,28.66C75,39.13,69.2,51.92,62.46,63.27c-2.81,4.06-4.54,9.1-8.78,9.1s-9.93-9.1-9.93-9.1a98.48,98.48,0,0,1-7.41-12.15l7.41-3.94V36.66L23.53,47.44c1.36,3.71,18.38,36.15,30.15,36.16,3.76,0,7.37-1.45,10.29-5.75C74.13,63.46,84.25,43.39,87.39,27.43,87.63,26.43,87.63,23.43,85.84,22.48Z"/></svg>